<svg width="512" height="512" viewBox="0 0 512 512" fill="none" xmlns="http://www.w3.org/2000/svg">
<g clip-path="url(#clip0_2683_433)">
<path d="M164.9 24.5991C157.2 5.99911 136.9 -3.90089 117.5 1.39911L29.5 25.3991C12.1 30.1991 0 45.9991 0 63.9991C0 311.399 200.6 511.999 448 511.999C466 511.999 481.8 499.899 486.6 482.499L510.6 394.499C515.9 375.099 506 354.799 487.4 347.099L391.4 307.099C375.1 300.299 356.2 304.999 345.1 318.699L304.7 367.999C234.3 334.699 177.3 277.699 144 207.299L193.3 166.999C207 155.799 211.7 136.999 204.9 120.699L164.9 24.6991V24.5991Z" fill="#1B69B3"/>
</g>
<defs>
<clipPath id="clip0_2683_433">
<rect width="512" height="512" fill="white"/>
</clipPath>
</defs>
</svg>
